<?xml version="1.0"?>
<svg xmlns="http://www.w3.org/2000/svg" xmlns:xlink="http://www.w3.org/1999/xlink" version="1.1" width="320px" height="320px" viewBox="0 0 320 320"><defs><rect id="block" width="10.0000000000" height="10.0000000000" fill="#000000" fill-opacity="1"/></defs><rect x="0" y="0" width="320" height="320" fill="#ffffff" fill-opacity="1"/><use x="15.0000000000" y="15.0000000000" xlink:href="#block"/><use x="25.0000000000" y="15.0000000000" xlink:href="#block"/><use x="35.0000000000" y="15.0000000000" xlink:href="#block"/><use x="45.0000000000" y="15.0000000000" xlink:href="#block"/><use x="55.0000000000" y="15.0000000000" xlink:href="#block"/><use x="65.0000000000" y="15.0000000000" xlink:href="#block"/><use x="75.0000000000" y="15.0000000000" xlink:href="#block"/><use x="95.0000000000" y="15.0000000000" xlink:href="#block"/><use x="145.0000000000" y="15.0000000000" xlink:href="#block"/><use x="155.0000000000" y="15.0000000000" xlink:href="#block"/><use x="165.0000000000" y="15.0000000000" xlink:href="#block"/><use x="175.0000000000" y="15.0000000000" xlink:href="#block"/><use x="235.0000000000" y="15.0000000000" xlink:href="#block"/><use x="245.0000000000" y="15.0000000000" xlink:href="#block"/><use x="255.0000000000" y="15.0000000000" xlink:href="#block"/><use x="265.0000000000" y="15.0000000000" xlink:href="#block"/><use x="275.0000000000" y="15.0000000000" xlink:href="#block"/><use x="285.0000000000" y="15.0000000000" xlink:href="#block"/><use x="295.0000000000" y="15.0000000000" xlink:href="#block"/><use x="15.0000000000" y="25.0000000000" xlink:href="#block"/><use x="75.0000000000" y="25.0000000000" xlink:href="#block"/><use x="95.0000000000" y="25.0000000000" xlink:href="#block"/><use x="125.0000000000" y="25.0000000000" xlink:href="#block"/><use x="135.0000000000" y="25.0000000000" xlink:href="#block"/><use x="165.0000000000" y="25.0000000000" xlink:href="#block"/><use x="185.0000000000" y="25.0000000000" xlink:href="#block"/><use x="195.0000000000" y="25.0000000000" xlink:href="#block"/><use x="205.0000000000" y="25.0000000000" xlink:href="#block"/><use x="215.0000000000" y="25.0000000000" xlink:href="#block"/><use x="235.0000000000" y="25.0000000000" xlink:href="#block"/><use x="295.0000000000" y="25.0000000000" xlink:href="#block"/><use x="15.0000000000" y="35.0000000000" xlink:href="#block"/><use x="35.0000000000" y="35.0000000000" xlink:href="#block"/><use x="45.0000000000" y="35.0000000000" xlink:href="#block"/><use x="55.0000000000" y="35.0000000000" xlink:href="#block"/><use x="75.0000000000" y="35.0000000000" xlink:href="#block"/><use x="95.0000000000" y="35.0000000000" xlink:href="#block"/><use x="105.0000000000" y="35.0000000000" xlink:href="#block"/><use x="135.0000000000" y="35.0000000000" xlink:href="#block"/><use x="145.0000000000" y="35.0000000000" xlink:href="#block"/><use x="155.0000000000" y="35.0000000000" xlink:href="#block"/><use x="205.0000000000" y="35.0000000000" xlink:href="#block"/><use x="215.0000000000" y="35.0000000000" xlink:href="#block"/><use x="235.0000000000" y="35.0000000000" xlink:href="#block"/><use x="255.0000000000" y="35.0000000000" xlink:href="#block"/><use x="265.0000000000" y="35.0000000000" xlink:href="#block"/><use x="275.0000000000" y="35.0000000000" xlink:href="#block"/><use x="295.0000000000" y="35.0000000000" xlink:href="#block"/><use x="15.0000000000" y="45.0000000000" xlink:href="#block"/><use x="35.0000000000" y="45.0000000000" xlink:href="#block"/><use x="45.0000000000" y="45.0000000000" xlink:href="#block"/><use x="55.0000000000" y="45.0000000000" xlink:href="#block"/><use x="75.0000000000" y="45.0000000000" xlink:href="#block"/><use x="95.0000000000" y="45.0000000000" xlink:href="#block"/><use x="105.0000000000" y="45.0000000000" xlink:href="#block"/><use x="115.0000000000" y="45.0000000000" xlink:href="#block"/><use x="135.0000000000" y="45.0000000000" xlink:href="#block"/><use x="165.0000000000" y="45.0000000000" xlink:href="#block"/><use x="195.0000000000" y="45.0000000000" xlink:href="#block"/><use x="235.0000000000" y="45.0000000000" xlink:href="#block"/><use x="255.0000000000" y="45.0000000000" xlink:href="#block"/><use x="265.0000000000" y="45.0000000000" xlink:href="#block"/><use x="275.0000000000" y="45.0000000000" xlink:href="#block"/><use x="295.0000000000" y="45.0000000000" xlink:href="#block"/><use x="15.0000000000" y="55.0000000000" xlink:href="#block"/><use x="35.0000000000" y="55.0000000000" xlink:href="#block"/><use x="45.0000000000" y="55.0000000000" xlink:href="#block"/><use x="55.0000000000" y="55.0000000000" xlink:href="#block"/><use x="75.0000000000" y="55.0000000000" xlink:href="#block"/><use x="105.0000000000" y="55.0000000000" xlink:href="#block"/><use x="115.0000000000" y="55.0000000000" xlink:href="#block"/><use x="135.0000000000" y="55.0000000000" xlink:href="#block"/><use x="145.0000000000" y="55.0000000000" xlink:href="#block"/><use x="165.0000000000" y="55.0000000000" xlink:href="#block"/><use x="175.0000000000" y="55.0000000000" xlink:href="#block"/><use x="215.0000000000" y="55.0000000000" xlink:href="#block"/><use x="235.0000000000" y="55.0000000000" xlink:href="#block"/><use x="255.0000000000" y="55.0000000000" xlink:href="#block"/><use x="265.0000000000" y="55.0000000000" xlink:href="#block"/><use x="275.0000000000" y="55.0000000000" xlink:href="#block"/><use x="295.0000000000" y="55.0000000000" xlink:href="#block"/><use x="15.0000000000" y="65.0000000000" xlink:href="#block"/><use x="75.0000000000" y="65.0000000000" xlink:href="#block"/><use x="95.0000000000" y="65.0000000000" xlink:href="#block"/><use x="105.0000000000" y="65.0000000000" xlink:href="#block"/><use x="115.0000000000" y="65.0000000000" xlink:href="#block"/><use x="165.0000000000" y="65.0000000000" xlink:href="#block"/><use x="185.0000000000" y="65.0000000000" xlink:href="#block"/><use x="205.0000000000" y="65.0000000000" xlink:href="#block"/><use x="235.0000000000" y="65.0000000000" xlink:href="#block"/><use x="295.0000000000" y="65.0000000000" xlink:href="#block"/><use x="15.0000000000" y="75.0000000000" xlink:href="#block"/><use x="25.0000000000" y="75.0000000000" xlink:href="#block"/><use x="35.0000000000" y="75.0000000000" xlink:href="#block"/><use x="45.0000000000" y="75.0000000000" xlink:href="#block"/><use x="55.0000000000" y="75.0000000000" xlink:href="#block"/><use x="65.0000000000" y="75.0000000000" xlink:href="#block"/><use x="75.0000000000" y="75.0000000000" xlink:href="#block"/><use x="95.0000000000" y="75.0000000000" xlink:href="#block"/><use x="115.0000000000" y="75.0000000000" xlink:href="#block"/><use x="135.0000000000" y="75.0000000000" xlink:href="#block"/><use x="155.0000000000" y="75.0000000000" xlink:href="#block"/><use x="175.0000000000" y="75.0000000000" xlink:href="#block"/><use x="195.0000000000" y="75.0000000000" xlink:href="#block"/><use x="215.0000000000" y="75.0000000000" xlink:href="#block"/><use x="235.0000000000" y="75.0000000000" xlink:href="#block"/><use x="245.0000000000" y="75.0000000000" xlink:href="#block"/><use x="255.0000000000" y="75.0000000000" xlink:href="#block"/><use x="265.0000000000" y="75.0000000000" xlink:href="#block"/><use x="275.0000000000" y="75.0000000000" xlink:href="#block"/><use x="285.0000000000" y="75.0000000000" xlink:href="#block"/><use x="295.0000000000" y="75.0000000000" xlink:href="#block"/><use x="115.0000000000" y="85.0000000000" xlink:href="#block"/><use x="125.0000000000" y="85.0000000000" xlink:href="#block"/><use x="185.0000000000" y="85.0000000000" xlink:href="#block"/><use x="195.0000000000" y="85.0000000000" xlink:href="#block"/><use x="205.0000000000" y="85.0000000000" xlink:href="#block"/><use x="215.0000000000" y="85.0000000000" xlink:href="#block"/><use x="15.0000000000" y="95.0000000000" xlink:href="#block"/><use x="25.0000000000" y="95.0000000000" xlink:href="#block"/><use x="55.0000000000" y="95.0000000000" xlink:href="#block"/><use x="65.0000000000" y="95.0000000000" xlink:href="#block"/><use x="75.0000000000" y="95.0000000000" xlink:href="#block"/><use x="115.0000000000" y="95.0000000000" xlink:href="#block"/><use x="135.0000000000" y="95.0000000000" xlink:href="#block"/><use x="145.0000000000" y="95.0000000000" xlink:href="#block"/><use x="185.0000000000" y="95.0000000000" xlink:href="#block"/><use x="205.0000000000" y="95.0000000000" xlink:href="#block"/><use x="245.0000000000" y="95.0000000000" xlink:href="#block"/><use x="265.0000000000" y="95.0000000000" xlink:href="#block"/><use x="275.0000000000" y="95.0000000000" xlink:href="#block"/><use x="285.0000000000" y="95.0000000000" xlink:href="#block"/><use x="295.0000000000" y="95.0000000000" xlink:href="#block"/><use x="15.0000000000" y="105.0000000000" xlink:href="#block"/><use x="45.0000000000" y="105.0000000000" xlink:href="#block"/><use x="65.0000000000" y="105.0000000000" xlink:href="#block"/><use x="95.0000000000" y="105.0000000000" xlink:href="#block"/><use x="145.0000000000" y="105.0000000000" xlink:href="#block"/><use x="155.0000000000" y="105.0000000000" xlink:href="#block"/><use x="175.0000000000" y="105.0000000000" xlink:href="#block"/><use x="225.0000000000" y="105.0000000000" xlink:href="#block"/><use x="275.0000000000" y="105.0000000000" xlink:href="#block"/><use x="35.0000000000" y="115.0000000000" xlink:href="#block"/><use x="45.0000000000" y="115.0000000000" xlink:href="#block"/><use x="65.0000000000" y="115.0000000000" xlink:href="#block"/><use x="75.0000000000" y="115.0000000000" xlink:href="#block"/><use x="85.0000000000" y="115.0000000000" xlink:href="#block"/><use x="95.0000000000" y="115.0000000000" xlink:href="#block"/><use x="105.0000000000" y="115.0000000000" xlink:href="#block"/><use x="115.0000000000" y="115.0000000000" xlink:href="#block"/><use x="145.0000000000" y="115.0000000000" xlink:href="#block"/><use x="155.0000000000" y="115.0000000000" xlink:href="#block"/><use x="165.0000000000" y="115.0000000000" xlink:href="#block"/><use x="195.0000000000" y="115.0000000000" xlink:href="#block"/><use x="205.0000000000" y="115.0000000000" xlink:href="#block"/><use x="235.0000000000" y="115.0000000000" xlink:href="#block"/><use x="245.0000000000" y="115.0000000000" xlink:href="#block"/><use x="255.0000000000" y="115.0000000000" xlink:href="#block"/><use x="265.0000000000" y="115.0000000000" xlink:href="#block"/><use x="275.0000000000" y="115.0000000000" xlink:href="#block"/><use x="295.0000000000" y="115.0000000000" xlink:href="#block"/><use x="15.0000000000" y="125.0000000000" xlink:href="#block"/><use x="35.0000000000" y="125.0000000000" xlink:href="#block"/><use x="65.0000000000" y="125.0000000000" xlink:href="#block"/><use x="85.0000000000" y="125.0000000000" xlink:href="#block"/><use x="95.0000000000" y="125.0000000000" xlink:href="#block"/><use x="105.0000000000" y="125.0000000000" xlink:href="#block"/><use x="135.0000000000" y="125.0000000000" xlink:href="#block"/><use x="155.0000000000" y="125.0000000000" xlink:href="#block"/><use x="165.0000000000" y="125.0000000000" xlink:href="#block"/><use x="205.0000000000" y="125.0000000000" xlink:href="#block"/><use x="215.0000000000" y="125.0000000000" xlink:href="#block"/><use x="265.0000000000" y="125.0000000000" xlink:href="#block"/><use x="25.0000000000" y="135.0000000000" xlink:href="#block"/><use x="45.0000000000" y="135.0000000000" xlink:href="#block"/><use x="55.0000000000" y="135.0000000000" xlink:href="#block"/><use x="65.0000000000" y="135.0000000000" xlink:href="#block"/><use x="75.0000000000" y="135.0000000000" xlink:href="#block"/><use x="95.0000000000" y="135.0000000000" xlink:href="#block"/><use x="125.0000000000" y="135.0000000000" xlink:href="#block"/><use x="135.0000000000" y="135.0000000000" xlink:href="#block"/><use x="145.0000000000" y="135.0000000000" xlink:href="#block"/><use x="195.0000000000" y="135.0000000000" xlink:href="#block"/><use x="205.0000000000" y="135.0000000000" xlink:href="#block"/><use x="215.0000000000" y="135.0000000000" xlink:href="#block"/><use x="245.0000000000" y="135.0000000000" xlink:href="#block"/><use x="265.0000000000" y="135.0000000000" xlink:href="#block"/><use x="275.0000000000" y="135.0000000000" xlink:href="#block"/><use x="285.0000000000" y="135.0000000000" xlink:href="#block"/><use x="15.0000000000" y="145.0000000000" xlink:href="#block"/><use x="25.0000000000" y="145.0000000000" xlink:href="#block"/><use x="35.0000000000" y="145.0000000000" xlink:href="#block"/><use x="105.0000000000" y="145.0000000000" xlink:href="#block"/><use x="115.0000000000" y="145.0000000000" xlink:href="#block"/><use x="135.0000000000" y="145.0000000000" xlink:href="#block"/><use x="145.0000000000" y="145.0000000000" xlink:href="#block"/><use x="165.0000000000" y="145.0000000000" xlink:href="#block"/><use x="225.0000000000" y="145.0000000000" xlink:href="#block"/><use x="235.0000000000" y="145.0000000000" xlink:href="#block"/><use x="275.0000000000" y="145.0000000000" xlink:href="#block"/><use x="15.0000000000" y="155.0000000000" xlink:href="#block"/><use x="25.0000000000" y="155.0000000000" xlink:href="#block"/><use x="35.0000000000" y="155.0000000000" xlink:href="#block"/><use x="45.0000000000" y="155.0000000000" xlink:href="#block"/><use x="55.0000000000" y="155.0000000000" xlink:href="#block"/><use x="65.0000000000" y="155.0000000000" xlink:href="#block"/><use x="75.0000000000" y="155.0000000000" xlink:href="#block"/><use x="85.0000000000" y="155.0000000000" xlink:href="#block"/><use x="105.0000000000" y="155.0000000000" xlink:href="#block"/><use x="115.0000000000" y="155.0000000000" xlink:href="#block"/><use x="125.0000000000" y="155.0000000000" xlink:href="#block"/><use x="145.0000000000" y="155.0000000000" xlink:href="#block"/><use x="155.0000000000" y="155.0000000000" xlink:href="#block"/><use x="195.0000000000" y="155.0000000000" xlink:href="#block"/><use x="205.0000000000" y="155.0000000000" xlink:href="#block"/><use x="235.0000000000" y="155.0000000000" xlink:href="#block"/><use x="245.0000000000" y="155.0000000000" xlink:href="#block"/><use x="255.0000000000" y="155.0000000000" xlink:href="#block"/><use x="265.0000000000" y="155.0000000000" xlink:href="#block"/><use x="275.0000000000" y="155.0000000000" xlink:href="#block"/><use x="285.0000000000" y="155.0000000000" xlink:href="#block"/><use x="15.0000000000" y="165.0000000000" xlink:href="#block"/><use x="25.0000000000" y="165.0000000000" xlink:href="#block"/><use x="45.0000000000" y="165.0000000000" xlink:href="#block"/><use x="55.0000000000" y="165.0000000000" xlink:href="#block"/><use x="65.0000000000" y="165.0000000000" xlink:href="#block"/><use x="95.0000000000" y="165.0000000000" xlink:href="#block"/><use x="115.0000000000" y="165.0000000000" xlink:href="#block"/><use x="125.0000000000" y="165.0000000000" xlink:href="#block"/><use x="145.0000000000" y="165.0000000000" xlink:href="#block"/><use x="175.0000000000" y="165.0000000000" xlink:href="#block"/><use x="205.0000000000" y="165.0000000000" xlink:href="#block"/><use x="225.0000000000" y="165.0000000000" xlink:href="#block"/><use x="285.0000000000" y="165.0000000000" xlink:href="#block"/><use x="25.0000000000" y="175.0000000000" xlink:href="#block"/><use x="35.0000000000" y="175.0000000000" xlink:href="#block"/><use x="45.0000000000" y="175.0000000000" xlink:href="#block"/><use x="55.0000000000" y="175.0000000000" xlink:href="#block"/><use x="75.0000000000" y="175.0000000000" xlink:href="#block"/><use x="85.0000000000" y="175.0000000000" xlink:href="#block"/><use x="135.0000000000" y="175.0000000000" xlink:href="#block"/><use x="185.0000000000" y="175.0000000000" xlink:href="#block"/><use x="195.0000000000" y="175.0000000000" xlink:href="#block"/><use x="205.0000000000" y="175.0000000000" xlink:href="#block"/><use x="225.0000000000" y="175.0000000000" xlink:href="#block"/><use x="235.0000000000" y="175.0000000000" xlink:href="#block"/><use x="245.0000000000" y="175.0000000000" xlink:href="#block"/><use x="255.0000000000" y="175.0000000000" xlink:href="#block"/><use x="265.0000000000" y="175.0000000000" xlink:href="#block"/><use x="275.0000000000" y="175.0000000000" xlink:href="#block"/><use x="285.0000000000" y="175.0000000000" xlink:href="#block"/><use x="15.0000000000" y="185.0000000000" xlink:href="#block"/><use x="65.0000000000" y="185.0000000000" xlink:href="#block"/><use x="95.0000000000" y="185.0000000000" xlink:href="#block"/><use x="105.0000000000" y="185.0000000000" xlink:href="#block"/><use x="115.0000000000" y="185.0000000000" xlink:href="#block"/><use x="135.0000000000" y="185.0000000000" xlink:href="#block"/><use x="145.0000000000" y="185.0000000000" xlink:href="#block"/><use x="165.0000000000" y="185.0000000000" xlink:href="#block"/><use x="205.0000000000" y="185.0000000000" xlink:href="#block"/><use x="225.0000000000" y="185.0000000000" xlink:href="#block"/><use x="235.0000000000" y="185.0000000000" xlink:href="#block"/><use x="265.0000000000" y="185.0000000000" xlink:href="#block"/><use x="275.0000000000" y="185.0000000000" xlink:href="#block"/><use x="285.0000000000" y="185.0000000000" xlink:href="#block"/><use x="45.0000000000" y="195.0000000000" xlink:href="#block"/><use x="55.0000000000" y="195.0000000000" xlink:href="#block"/><use x="75.0000000000" y="195.0000000000" xlink:href="#block"/><use x="85.0000000000" y="195.0000000000" xlink:href="#block"/><use x="95.0000000000" y="195.0000000000" xlink:href="#block"/><use x="105.0000000000" y="195.0000000000" xlink:href="#block"/><use x="115.0000000000" y="195.0000000000" xlink:href="#block"/><use x="135.0000000000" y="195.0000000000" xlink:href="#block"/><use x="145.0000000000" y="195.0000000000" xlink:href="#block"/><use x="155.0000000000" y="195.0000000000" xlink:href="#block"/><use x="165.0000000000" y="195.0000000000" xlink:href="#block"/><use x="195.0000000000" y="195.0000000000" xlink:href="#block"/><use x="235.0000000000" y="195.0000000000" xlink:href="#block"/><use x="245.0000000000" y="195.0000000000" xlink:href="#block"/><use x="255.0000000000" y="195.0000000000" xlink:href="#block"/><use x="265.0000000000" y="195.0000000000" xlink:href="#block"/><use x="275.0000000000" y="195.0000000000" xlink:href="#block"/><use x="35.0000000000" y="205.0000000000" xlink:href="#block"/><use x="45.0000000000" y="205.0000000000" xlink:href="#block"/><use x="55.0000000000" y="205.0000000000" xlink:href="#block"/><use x="145.0000000000" y="205.0000000000" xlink:href="#block"/><use x="205.0000000000" y="205.0000000000" xlink:href="#block"/><use x="215.0000000000" y="205.0000000000" xlink:href="#block"/><use x="275.0000000000" y="205.0000000000" xlink:href="#block"/><use x="285.0000000000" y="205.0000000000" xlink:href="#block"/><use x="15.0000000000" y="215.0000000000" xlink:href="#block"/><use x="25.0000000000" y="215.0000000000" xlink:href="#block"/><use x="45.0000000000" y="215.0000000000" xlink:href="#block"/><use x="75.0000000000" y="215.0000000000" xlink:href="#block"/><use x="105.0000000000" y="215.0000000000" xlink:href="#block"/><use x="135.0000000000" y="215.0000000000" xlink:href="#block"/><use x="175.0000000000" y="215.0000000000" xlink:href="#block"/><use x="195.0000000000" y="215.0000000000" xlink:href="#block"/><use x="205.0000000000" y="215.0000000000" xlink:href="#block"/><use x="215.0000000000" y="215.0000000000" xlink:href="#block"/><use x="225.0000000000" y="215.0000000000" xlink:href="#block"/><use x="235.0000000000" y="215.0000000000" xlink:href="#block"/><use x="245.0000000000" y="215.0000000000" xlink:href="#block"/><use x="255.0000000000" y="215.0000000000" xlink:href="#block"/><use x="265.0000000000" y="215.0000000000" xlink:href="#block"/><use x="95.0000000000" y="225.0000000000" xlink:href="#block"/><use x="125.0000000000" y="225.0000000000" xlink:href="#block"/><use x="145.0000000000" y="225.0000000000" xlink:href="#block"/><use x="155.0000000000" y="225.0000000000" xlink:href="#block"/><use x="175.0000000000" y="225.0000000000" xlink:href="#block"/><use x="215.0000000000" y="225.0000000000" xlink:href="#block"/><use x="255.0000000000" y="225.0000000000" xlink:href="#block"/><use x="265.0000000000" y="225.0000000000" xlink:href="#block"/><use x="275.0000000000" y="225.0000000000" xlink:href="#block"/><use x="15.0000000000" y="235.0000000000" xlink:href="#block"/><use x="25.0000000000" y="235.0000000000" xlink:href="#block"/><use x="35.0000000000" y="235.0000000000" xlink:href="#block"/><use x="45.0000000000" y="235.0000000000" xlink:href="#block"/><use x="55.0000000000" y="235.0000000000" xlink:href="#block"/><use x="65.0000000000" y="235.0000000000" xlink:href="#block"/><use x="75.0000000000" y="235.0000000000" xlink:href="#block"/><use x="105.0000000000" y="235.0000000000" xlink:href="#block"/><use x="125.0000000000" y="235.0000000000" xlink:href="#block"/><use x="135.0000000000" y="235.0000000000" xlink:href="#block"/><use x="145.0000000000" y="235.0000000000" xlink:href="#block"/><use x="155.0000000000" y="235.0000000000" xlink:href="#block"/><use x="165.0000000000" y="235.0000000000" xlink:href="#block"/><use x="175.0000000000" y="235.0000000000" xlink:href="#block"/><use x="205.0000000000" y="235.0000000000" xlink:href="#block"/><use x="215.0000000000" y="235.0000000000" xlink:href="#block"/><use x="235.0000000000" y="235.0000000000" xlink:href="#block"/><use x="255.0000000000" y="235.0000000000" xlink:href="#block"/><use x="275.0000000000" y="235.0000000000" xlink:href="#block"/><use x="295.0000000000" y="235.0000000000" xlink:href="#block"/><use x="15.0000000000" y="245.0000000000" xlink:href="#block"/><use x="75.0000000000" y="245.0000000000" xlink:href="#block"/><use x="95.0000000000" y="245.0000000000" xlink:href="#block"/><use x="105.0000000000" y="245.0000000000" xlink:href="#block"/><use x="115.0000000000" y="245.0000000000" xlink:href="#block"/><use x="215.0000000000" y="245.0000000000" xlink:href="#block"/><use x="255.0000000000" y="245.0000000000" xlink:href="#block"/><use x="265.0000000000" y="245.0000000000" xlink:href="#block"/><use x="275.0000000000" y="245.0000000000" xlink:href="#block"/><use x="285.0000000000" y="245.0000000000" xlink:href="#block"/><use x="15.0000000000" y="255.0000000000" xlink:href="#block"/><use x="35.0000000000" y="255.0000000000" xlink:href="#block"/><use x="45.0000000000" y="255.0000000000" xlink:href="#block"/><use x="55.0000000000" y="255.0000000000" xlink:href="#block"/><use x="75.0000000000" y="255.0000000000" xlink:href="#block"/><use x="95.0000000000" y="255.0000000000" xlink:href="#block"/><use x="105.0000000000" y="255.0000000000" xlink:href="#block"/><use x="115.0000000000" y="255.0000000000" xlink:href="#block"/><use x="175.0000000000" y="255.0000000000" xlink:href="#block"/><use x="185.0000000000" y="255.0000000000" xlink:href="#block"/><use x="205.0000000000" y="255.0000000000" xlink:href="#block"/><use x="215.0000000000" y="255.0000000000" xlink:href="#block"/><use x="225.0000000000" y="255.0000000000" xlink:href="#block"/><use x="235.0000000000" y="255.0000000000" xlink:href="#block"/><use x="245.0000000000" y="255.0000000000" xlink:href="#block"/><use x="255.0000000000" y="255.0000000000" xlink:href="#block"/><use x="295.0000000000" y="255.0000000000" xlink:href="#block"/><use x="15.0000000000" y="265.0000000000" xlink:href="#block"/><use x="35.0000000000" y="265.0000000000" xlink:href="#block"/><use x="45.0000000000" y="265.0000000000" xlink:href="#block"/><use x="55.0000000000" y="265.0000000000" xlink:href="#block"/><use x="75.0000000000" y="265.0000000000" xlink:href="#block"/><use x="125.0000000000" y="265.0000000000" xlink:href="#block"/><use x="135.0000000000" y="265.0000000000" xlink:href="#block"/><use x="145.0000000000" y="265.0000000000" xlink:href="#block"/><use x="165.0000000000" y="265.0000000000" xlink:href="#block"/><use x="205.0000000000" y="265.0000000000" xlink:href="#block"/><use x="225.0000000000" y="265.0000000000" xlink:href="#block"/><use x="245.0000000000" y="265.0000000000" xlink:href="#block"/><use x="265.0000000000" y="265.0000000000" xlink:href="#block"/><use x="275.0000000000" y="265.0000000000" xlink:href="#block"/><use x="285.0000000000" y="265.0000000000" xlink:href="#block"/><use x="15.0000000000" y="275.0000000000" xlink:href="#block"/><use x="35.0000000000" y="275.0000000000" xlink:href="#block"/><use x="45.0000000000" y="275.0000000000" xlink:href="#block"/><use x="55.0000000000" y="275.0000000000" xlink:href="#block"/><use x="75.0000000000" y="275.0000000000" xlink:href="#block"/><use x="105.0000000000" y="275.0000000000" xlink:href="#block"/><use x="115.0000000000" y="275.0000000000" xlink:href="#block"/><use x="125.0000000000" y="275.0000000000" xlink:href="#block"/><use x="135.0000000000" y="275.0000000000" xlink:href="#block"/><use x="145.0000000000" y="275.0000000000" xlink:href="#block"/><use x="165.0000000000" y="275.0000000000" xlink:href="#block"/><use x="185.0000000000" y="275.0000000000" xlink:href="#block"/><use x="195.0000000000" y="275.0000000000" xlink:href="#block"/><use x="205.0000000000" y="275.0000000000" xlink:href="#block"/><use x="235.0000000000" y="275.0000000000" xlink:href="#block"/><use x="275.0000000000" y="275.0000000000" xlink:href="#block"/><use x="285.0000000000" y="275.0000000000" xlink:href="#block"/><use x="295.0000000000" y="275.0000000000" xlink:href="#block"/><use x="15.0000000000" y="285.0000000000" xlink:href="#block"/><use x="75.0000000000" y="285.0000000000" xlink:href="#block"/><use x="95.0000000000" y="285.0000000000" xlink:href="#block"/><use x="105.0000000000" y="285.0000000000" xlink:href="#block"/><use x="115.0000000000" y="285.0000000000" xlink:href="#block"/><use x="155.0000000000" y="285.0000000000" xlink:href="#block"/><use x="185.0000000000" y="285.0000000000" xlink:href="#block"/><use x="195.0000000000" y="285.0000000000" xlink:href="#block"/><use x="215.0000000000" y="285.0000000000" xlink:href="#block"/><use x="235.0000000000" y="285.0000000000" xlink:href="#block"/><use x="255.0000000000" y="285.0000000000" xlink:href="#block"/><use x="265.0000000000" y="285.0000000000" xlink:href="#block"/><use x="275.0000000000" y="285.0000000000" xlink:href="#block"/><use x="15.0000000000" y="295.0000000000" xlink:href="#block"/><use x="25.0000000000" y="295.0000000000" xlink:href="#block"/><use x="35.0000000000" y="295.0000000000" xlink:href="#block"/><use x="45.0000000000" y="295.0000000000" xlink:href="#block"/><use x="55.0000000000" y="295.0000000000" xlink:href="#block"/><use x="65.0000000000" y="295.0000000000" xlink:href="#block"/><use x="75.0000000000" y="295.0000000000" xlink:href="#block"/><use x="95.0000000000" y="295.0000000000" xlink:href="#block"/><use x="145.0000000000" y="295.0000000000" xlink:href="#block"/><use x="155.0000000000" y="295.0000000000" xlink:href="#block"/><use x="175.0000000000" y="295.0000000000" xlink:href="#block"/><use x="205.0000000000" y="295.0000000000" xlink:href="#block"/><use x="215.0000000000" y="295.0000000000" xlink:href="#block"/><use x="225.0000000000" y="295.0000000000" xlink:href="#block"/><use x="235.0000000000" y="295.0000000000" xlink:href="#block"/><use x="245.0000000000" y="295.0000000000" xlink:href="#block"/><use x="255.0000000000" y="295.0000000000" xlink:href="#block"/><use x="285.0000000000" y="295.0000000000" xlink:href="#block"/></svg>
